<mxfile host="app.diagrams.net" agent="Mozilla/5.0 (X11; Linux x86_64; rv:109.0) Gecko/20100101 Firefox/118.0" version="24.7.7">
  <diagram name="Page-1" id="Xt0bRj_AuGCTYlPWWuyn">
    <mxGraphModel dx="1406" dy="580" grid="1" gridSize="10" guides="1" tooltips="1" connect="1" arrows="1" fold="1" page="1" pageScale="1" pageWidth="1100" pageHeight="850" math="0" shadow="0">
      <root>
        <mxCell id="0" />
        <mxCell id="1" parent="0" />
        <mxCell id="JK9oTEO6e0a9drOFpncE-6" style="edgeStyle=orthogonalEdgeStyle;rounded=0;orthogonalLoop=1;jettySize=auto;html=1;" edge="1" parent="1" source="JK9oTEO6e0a9drOFpncE-1" target="JK9oTEO6e0a9drOFpncE-5">
          <mxGeometry relative="1" as="geometry" />
        </mxCell>
        <mxCell id="JK9oTEO6e0a9drOFpncE-10" style="edgeStyle=orthogonalEdgeStyle;rounded=0;orthogonalLoop=1;jettySize=auto;html=1;fillColor=#fff2cc;strokeColor=#d6b656;" edge="1" parent="1" source="JK9oTEO6e0a9drOFpncE-1" target="JK9oTEO6e0a9drOFpncE-7">
          <mxGeometry relative="1" as="geometry" />
        </mxCell>
        <mxCell id="JK9oTEO6e0a9drOFpncE-1" value="high level domain model" style="rounded=1;whiteSpace=wrap;html=1;fillColor=#fff2cc;strokeColor=#d6b656;" vertex="1" parent="1">
          <mxGeometry x="180" y="120" width="120" height="60" as="geometry" />
        </mxCell>
        <mxCell id="JK9oTEO6e0a9drOFpncE-2" value="object oriented domain modeling pattern" style="rounded=1;whiteSpace=wrap;html=1;" vertex="1" parent="1">
          <mxGeometry x="470" y="120" width="120" height="60" as="geometry" />
        </mxCell>
        <mxCell id="JK9oTEO6e0a9drOFpncE-3" value="&lt;div&gt;aggregate pattern&lt;/div&gt;&lt;div&gt;along with DDD principles&lt;br&gt;&lt;/div&gt;" style="rounded=1;whiteSpace=wrap;html=1;" vertex="1" parent="1">
          <mxGeometry x="600" y="120" width="120" height="60" as="geometry" />
        </mxCell>
        <mxCell id="JK9oTEO6e0a9drOFpncE-5" value="static view of the problem domain" style="rounded=1;whiteSpace=wrap;html=1;fillColor=#dae8fc;strokeColor=#6c8ebf;" vertex="1" parent="1">
          <mxGeometry x="330" y="120" width="120" height="60" as="geometry" />
        </mxCell>
        <mxCell id="JK9oTEO6e0a9drOFpncE-9" style="edgeStyle=orthogonalEdgeStyle;rounded=0;orthogonalLoop=1;jettySize=auto;html=1;" edge="1" parent="1" source="JK9oTEO6e0a9drOFpncE-7" target="JK9oTEO6e0a9drOFpncE-8">
          <mxGeometry relative="1" as="geometry" />
        </mxCell>
        <mxCell id="JK9oTEO6e0a9drOFpncE-17" style="edgeStyle=orthogonalEdgeStyle;rounded=0;orthogonalLoop=1;jettySize=auto;html=1;fillColor=#fff2cc;strokeColor=#d6b656;" edge="1" parent="1" source="JK9oTEO6e0a9drOFpncE-7" target="JK9oTEO6e0a9drOFpncE-11">
          <mxGeometry relative="1" as="geometry" />
        </mxCell>
        <mxCell id="JK9oTEO6e0a9drOFpncE-7" value="system operation mapping" style="rounded=1;whiteSpace=wrap;html=1;fillColor=#fff2cc;strokeColor=#d6b656;" vertex="1" parent="1">
          <mxGeometry x="180" y="260" width="120" height="60" as="geometry" />
        </mxCell>
        <mxCell id="JK9oTEO6e0a9drOFpncE-8" value="which actions the system must perform" style="rounded=1;whiteSpace=wrap;html=1;fillColor=#dae8fc;strokeColor=#6c8ebf;" vertex="1" parent="1">
          <mxGeometry x="330" y="260" width="120" height="60" as="geometry" />
        </mxCell>
        <mxCell id="JK9oTEO6e0a9drOFpncE-15" style="edgeStyle=orthogonalEdgeStyle;rounded=0;orthogonalLoop=1;jettySize=auto;html=1;" edge="1" parent="1" source="JK9oTEO6e0a9drOFpncE-11" target="JK9oTEO6e0a9drOFpncE-14">
          <mxGeometry relative="1" as="geometry" />
        </mxCell>
        <mxCell id="JK9oTEO6e0a9drOFpncE-20" style="edgeStyle=orthogonalEdgeStyle;rounded=0;orthogonalLoop=1;jettySize=auto;html=1;fillColor=#fff2cc;strokeColor=#d6b656;" edge="1" parent="1" source="JK9oTEO6e0a9drOFpncE-11" target="JK9oTEO6e0a9drOFpncE-19">
          <mxGeometry relative="1" as="geometry" />
        </mxCell>
        <mxCell id="JK9oTEO6e0a9drOFpncE-11" value="service decomposition" style="rounded=1;whiteSpace=wrap;html=1;fillColor=#fff2cc;strokeColor=#d6b656;" vertex="1" parent="1">
          <mxGeometry x="180" y="395" width="120" height="60" as="geometry" />
        </mxCell>
        <mxCell id="JK9oTEO6e0a9drOFpncE-12" value="business capability pattern" style="rounded=1;whiteSpace=wrap;html=1;" vertex="1" parent="1">
          <mxGeometry x="470" y="395" width="120" height="60" as="geometry" />
        </mxCell>
        <mxCell id="JK9oTEO6e0a9drOFpncE-13" value="sub domain pattern" style="rounded=1;whiteSpace=wrap;html=1;" vertex="1" parent="1">
          <mxGeometry x="600" y="395" width="120" height="60" as="geometry" />
        </mxCell>
        <mxCell id="JK9oTEO6e0a9drOFpncE-14" value="services that represent business activities" style="rounded=1;whiteSpace=wrap;html=1;fillColor=#dae8fc;strokeColor=#6c8ebf;" vertex="1" parent="1">
          <mxGeometry x="330" y="395" width="120" height="60" as="geometry" />
        </mxCell>
        <mxCell id="JK9oTEO6e0a9drOFpncE-23" style="edgeStyle=orthogonalEdgeStyle;rounded=0;orthogonalLoop=1;jettySize=auto;html=1;" edge="1" parent="1" source="JK9oTEO6e0a9drOFpncE-19" target="JK9oTEO6e0a9drOFpncE-22">
          <mxGeometry relative="1" as="geometry" />
        </mxCell>
        <mxCell id="JK9oTEO6e0a9drOFpncE-24" style="edgeStyle=orthogonalEdgeStyle;rounded=0;orthogonalLoop=1;jettySize=auto;html=1;fillColor=#fff2cc;strokeColor=#d6b656;" edge="1" parent="1" source="JK9oTEO6e0a9drOFpncE-19" target="JK9oTEO6e0a9drOFpncE-21">
          <mxGeometry relative="1" as="geometry" />
        </mxCell>
        <mxCell id="JK9oTEO6e0a9drOFpncE-19" value="system operations allocation" style="rounded=1;whiteSpace=wrap;html=1;fillColor=#fff2cc;strokeColor=#d6b656;" vertex="1" parent="1">
          <mxGeometry x="180" y="520" width="120" height="60" as="geometry" />
        </mxCell>
        <mxCell id="JK9oTEO6e0a9drOFpncE-26" style="edgeStyle=orthogonalEdgeStyle;rounded=0;orthogonalLoop=1;jettySize=auto;html=1;" edge="1" parent="1" source="JK9oTEO6e0a9drOFpncE-21" target="JK9oTEO6e0a9drOFpncE-25">
          <mxGeometry relative="1" as="geometry" />
        </mxCell>
        <mxCell id="JK9oTEO6e0a9drOFpncE-28" style="edgeStyle=orthogonalEdgeStyle;rounded=1;orthogonalLoop=1;jettySize=auto;html=1;fillColor=#fff2cc;strokeColor=#d6b656;curved=0;" edge="1" parent="1" source="JK9oTEO6e0a9drOFpncE-21" target="JK9oTEO6e0a9drOFpncE-27">
          <mxGeometry relative="1" as="geometry">
            <Array as="points">
              <mxPoint x="240" y="770" />
              <mxPoint x="760" y="770" />
              <mxPoint x="760" y="150" />
            </Array>
          </mxGeometry>
        </mxCell>
        <mxCell id="JK9oTEO6e0a9drOFpncE-21" value="service operations identification and allocation" style="rounded=1;whiteSpace=wrap;html=1;fillColor=#fff2cc;strokeColor=#d6b656;" vertex="1" parent="1">
          <mxGeometry x="180" y="660" width="120" height="60" as="geometry" />
        </mxCell>
        <mxCell id="JK9oTEO6e0a9drOFpncE-22" value="identified system operations assigned to services" style="rounded=1;whiteSpace=wrap;html=1;fillColor=#dae8fc;strokeColor=#6c8ebf;" vertex="1" parent="1">
          <mxGeometry x="330" y="520" width="120" height="60" as="geometry" />
        </mxCell>
        <mxCell id="JK9oTEO6e0a9drOFpncE-25" value="complementary operations to support system operations mapping" style="rounded=1;whiteSpace=wrap;html=1;fillColor=#dae8fc;strokeColor=#6c8ebf;" vertex="1" parent="1">
          <mxGeometry x="330" y="660" width="120" height="60" as="geometry" />
        </mxCell>
        <mxCell id="JK9oTEO6e0a9drOFpncE-30" style="edgeStyle=orthogonalEdgeStyle;rounded=0;orthogonalLoop=1;jettySize=auto;html=1;" edge="1" parent="1" source="JK9oTEO6e0a9drOFpncE-27" target="JK9oTEO6e0a9drOFpncE-29">
          <mxGeometry relative="1" as="geometry" />
        </mxCell>
        <mxCell id="JK9oTEO6e0a9drOFpncE-34" style="edgeStyle=orthogonalEdgeStyle;rounded=0;orthogonalLoop=1;jettySize=auto;html=1;" edge="1" parent="1" source="JK9oTEO6e0a9drOFpncE-27" target="JK9oTEO6e0a9drOFpncE-33">
          <mxGeometry relative="1" as="geometry" />
        </mxCell>
        <mxCell id="JK9oTEO6e0a9drOFpncE-27" value="services collaboration mapping" style="rounded=1;whiteSpace=wrap;html=1;fillColor=#fff2cc;strokeColor=#d6b656;" vertex="1" parent="1">
          <mxGeometry x="810" y="120" width="120" height="60" as="geometry" />
        </mxCell>
        <mxCell id="JK9oTEO6e0a9drOFpncE-32" style="edgeStyle=orthogonalEdgeStyle;rounded=0;orthogonalLoop=1;jettySize=auto;html=1;" edge="1" parent="1" source="JK9oTEO6e0a9drOFpncE-29" target="JK9oTEO6e0a9drOFpncE-31">
          <mxGeometry relative="1" as="geometry" />
        </mxCell>
        <mxCell id="JK9oTEO6e0a9drOFpncE-37" style="edgeStyle=orthogonalEdgeStyle;rounded=0;orthogonalLoop=1;jettySize=auto;html=1;" edge="1" parent="1" source="JK9oTEO6e0a9drOFpncE-29" target="JK9oTEO6e0a9drOFpncE-36">
          <mxGeometry relative="1" as="geometry" />
        </mxCell>
        <mxCell id="JK9oTEO6e0a9drOFpncE-29" value="service level domain modeling" style="rounded=1;whiteSpace=wrap;html=1;fillColor=#fff2cc;strokeColor=#d6b656;" vertex="1" parent="1">
          <mxGeometry x="810" y="240" width="120" height="60" as="geometry" />
        </mxCell>
        <mxCell id="JK9oTEO6e0a9drOFpncE-31" value="domain model for each service" style="rounded=1;whiteSpace=wrap;html=1;fillColor=#dae8fc;strokeColor=#6c8ebf;" vertex="1" parent="1">
          <mxGeometry x="980" y="240" width="120" height="60" as="geometry" />
        </mxCell>
        <mxCell id="JK9oTEO6e0a9drOFpncE-33" value="complete implementation view using microservices&amp;nbsp; architectural style" style="rounded=1;whiteSpace=wrap;html=1;fillColor=#dae8fc;strokeColor=#6c8ebf;" vertex="1" parent="1">
          <mxGeometry x="980" y="120" width="120" height="60" as="geometry" />
        </mxCell>
        <mxCell id="JK9oTEO6e0a9drOFpncE-40" style="edgeStyle=orthogonalEdgeStyle;rounded=1;orthogonalLoop=1;jettySize=auto;html=1;curved=0;" edge="1" parent="1" source="JK9oTEO6e0a9drOFpncE-36" target="JK9oTEO6e0a9drOFpncE-38">
          <mxGeometry relative="1" as="geometry" />
        </mxCell>
        <mxCell id="JK9oTEO6e0a9drOFpncE-41" style="edgeStyle=orthogonalEdgeStyle;rounded=1;orthogonalLoop=1;jettySize=auto;html=1;curved=0;" edge="1" parent="1" source="JK9oTEO6e0a9drOFpncE-36" target="JK9oTEO6e0a9drOFpncE-39">
          <mxGeometry relative="1" as="geometry" />
        </mxCell>
        <mxCell id="JK9oTEO6e0a9drOFpncE-44" style="edgeStyle=orthogonalEdgeStyle;rounded=0;orthogonalLoop=1;jettySize=auto;html=1;" edge="1" parent="1" source="JK9oTEO6e0a9drOFpncE-36" target="JK9oTEO6e0a9drOFpncE-42">
          <mxGeometry relative="1" as="geometry" />
        </mxCell>
        <mxCell id="JK9oTEO6e0a9drOFpncE-36" value="distributed transactions identification and ACD addressing" style="rounded=1;whiteSpace=wrap;html=1;fillColor=#fff2cc;strokeColor=#d6b656;" vertex="1" parent="1">
          <mxGeometry x="810" y="390" width="120" height="60" as="geometry" />
        </mxCell>
        <mxCell id="JK9oTEO6e0a9drOFpncE-38" value="scenarios defined for each transaction" style="rounded=1;whiteSpace=wrap;html=1;fillColor=#dae8fc;strokeColor=#6c8ebf;" vertex="1" parent="1">
          <mxGeometry x="980" y="340" width="120" height="60" as="geometry" />
        </mxCell>
        <mxCell id="JK9oTEO6e0a9drOFpncE-39" value="SAGAs" style="rounded=1;whiteSpace=wrap;html=1;fillColor=#dae8fc;strokeColor=#6c8ebf;" vertex="1" parent="1">
          <mxGeometry x="980" y="440" width="120" height="60" as="geometry" />
        </mxCell>
        <mxCell id="JK9oTEO6e0a9drOFpncE-47" style="edgeStyle=orthogonalEdgeStyle;rounded=1;orthogonalLoop=1;jettySize=auto;html=1;curved=0;" edge="1" parent="1" source="JK9oTEO6e0a9drOFpncE-42" target="JK9oTEO6e0a9drOFpncE-45">
          <mxGeometry relative="1" as="geometry" />
        </mxCell>
        <mxCell id="JK9oTEO6e0a9drOFpncE-48" style="edgeStyle=orthogonalEdgeStyle;rounded=1;orthogonalLoop=1;jettySize=auto;html=1;entryX=0;entryY=0.5;entryDx=0;entryDy=0;curved=0;" edge="1" parent="1" source="JK9oTEO6e0a9drOFpncE-42" target="JK9oTEO6e0a9drOFpncE-46">
          <mxGeometry relative="1" as="geometry" />
        </mxCell>
        <mxCell id="JK9oTEO6e0a9drOFpncE-51" style="edgeStyle=orthogonalEdgeStyle;rounded=0;orthogonalLoop=1;jettySize=auto;html=1;" edge="1" parent="1" source="JK9oTEO6e0a9drOFpncE-42" target="JK9oTEO6e0a9drOFpncE-50">
          <mxGeometry relative="1" as="geometry" />
        </mxCell>
        <mxCell id="JK9oTEO6e0a9drOFpncE-42" value="APIs definition" style="rounded=1;whiteSpace=wrap;html=1;fillColor=#fff2cc;strokeColor=#d6b656;" vertex="1" parent="1">
          <mxGeometry x="810" y="565" width="120" height="60" as="geometry" />
        </mxCell>
        <mxCell id="JK9oTEO6e0a9drOFpncE-45" value="&lt;div&gt;Sync APIs contract&lt;br&gt;&lt;/div&gt;" style="rounded=1;whiteSpace=wrap;html=1;fillColor=#dae8fc;strokeColor=#6c8ebf;" vertex="1" parent="1">
          <mxGeometry x="980" y="530" width="120" height="60" as="geometry" />
        </mxCell>
        <mxCell id="JK9oTEO6e0a9drOFpncE-46" value="Async APIs contract" style="rounded=1;whiteSpace=wrap;html=1;fillColor=#dae8fc;strokeColor=#6c8ebf;" vertex="1" parent="1">
          <mxGeometry x="980" y="600" width="120" height="60" as="geometry" />
        </mxCell>
        <mxCell id="JK9oTEO6e0a9drOFpncE-49" value="services and integration technologies definition" style="rounded=1;whiteSpace=wrap;html=1;fillColor=#dae8fc;strokeColor=#6c8ebf;" vertex="1" parent="1">
          <mxGeometry x="980" y="670" width="120" height="60" as="geometry" />
        </mxCell>
        <mxCell id="JK9oTEO6e0a9drOFpncE-52" style="edgeStyle=orthogonalEdgeStyle;rounded=1;orthogonalLoop=1;jettySize=auto;html=1;curved=0;" edge="1" parent="1" source="JK9oTEO6e0a9drOFpncE-50" target="JK9oTEO6e0a9drOFpncE-49">
          <mxGeometry relative="1" as="geometry" />
        </mxCell>
        <mxCell id="JK9oTEO6e0a9drOFpncE-54" style="edgeStyle=orthogonalEdgeStyle;rounded=1;orthogonalLoop=1;jettySize=auto;html=1;curved=0;" edge="1" parent="1" source="JK9oTEO6e0a9drOFpncE-50" target="JK9oTEO6e0a9drOFpncE-53">
          <mxGeometry relative="1" as="geometry">
            <Array as="points">
              <mxPoint x="960" y="740" />
              <mxPoint x="960" y="770" />
            </Array>
          </mxGeometry>
        </mxCell>
        <mxCell id="JK9oTEO6e0a9drOFpncE-50" value="implementation view structuring" style="rounded=1;whiteSpace=wrap;html=1;fillColor=#fff2cc;strokeColor=#d6b656;" vertex="1" parent="1">
          <mxGeometry x="810" y="710" width="120" height="60" as="geometry" />
        </mxCell>
        <mxCell id="JK9oTEO6e0a9drOFpncE-53" value="infrastructure components definition" style="rounded=1;whiteSpace=wrap;html=1;fillColor=#dae8fc;strokeColor=#6c8ebf;" vertex="1" parent="1">
          <mxGeometry x="980" y="750" width="120" height="50" as="geometry" />
        </mxCell>
        <mxCell id="JK9oTEO6e0a9drOFpncE-55" value="saga pattern" style="rounded=1;whiteSpace=wrap;html=1;" vertex="1" parent="1">
          <mxGeometry x="1120" y="440" width="120" height="60" as="geometry" />
        </mxCell>
        <mxCell id="JK9oTEO6e0a9drOFpncE-56" value="stage" style="rounded=0;whiteSpace=wrap;html=1;fillColor=#d5e8d4;strokeColor=#82b366;" vertex="1" parent="1">
          <mxGeometry x="180" y="90" width="120" height="20" as="geometry" />
        </mxCell>
        <mxCell id="JK9oTEO6e0a9drOFpncE-57" value="outcome" style="rounded=0;whiteSpace=wrap;html=1;fillColor=#d5e8d4;strokeColor=#82b366;" vertex="1" parent="1">
          <mxGeometry x="330" y="90" width="120" height="20" as="geometry" />
        </mxCell>
        <mxCell id="JK9oTEO6e0a9drOFpncE-58" value="patterns, principles and architectural styles" style="rounded=0;whiteSpace=wrap;html=1;fillColor=#d5e8d4;strokeColor=#82b366;" vertex="1" parent="1">
          <mxGeometry x="470" y="90" width="250" height="20" as="geometry" />
        </mxCell>
        <mxCell id="JK9oTEO6e0a9drOFpncE-59" value="stage" style="rounded=0;whiteSpace=wrap;html=1;fillColor=#d5e8d4;strokeColor=#82b366;" vertex="1" parent="1">
          <mxGeometry x="810" y="90" width="120" height="20" as="geometry" />
        </mxCell>
        <mxCell id="JK9oTEO6e0a9drOFpncE-60" value="outcome" style="rounded=0;whiteSpace=wrap;html=1;fillColor=#d5e8d4;strokeColor=#82b366;" vertex="1" parent="1">
          <mxGeometry x="980" y="90" width="120" height="20" as="geometry" />
        </mxCell>
        <mxCell id="JK9oTEO6e0a9drOFpncE-61" value="patterns, principles and architectural styles" style="rounded=0;whiteSpace=wrap;html=1;fillColor=#d5e8d4;strokeColor=#82b366;" vertex="1" parent="1">
          <mxGeometry x="1120" y="90" width="470" height="20" as="geometry" />
        </mxCell>
        <mxCell id="JK9oTEO6e0a9drOFpncE-64" value="DDD principles and patterns" style="rounded=1;whiteSpace=wrap;html=1;" vertex="1" parent="1">
          <mxGeometry x="1120" y="245" width="80" height="50" as="geometry" />
        </mxCell>
        <mxCell id="JK9oTEO6e0a9drOFpncE-65" value="Hexagonal architecture" style="rounded=1;whiteSpace=wrap;html=1;" vertex="1" parent="1">
          <mxGeometry x="1210" y="247.5" width="130" height="20" as="geometry" />
        </mxCell>
        <mxCell id="JK9oTEO6e0a9drOFpncE-66" value="Clean architecture" style="rounded=1;whiteSpace=wrap;html=1;" vertex="1" parent="1">
          <mxGeometry x="1210" y="272.5" width="130" height="20" as="geometry" />
        </mxCell>
        <mxCell id="JK9oTEO6e0a9drOFpncE-67" value="Layered architecture" style="rounded=1;whiteSpace=wrap;html=1;" vertex="1" parent="1">
          <mxGeometry x="1350" y="247.5" width="130" height="20" as="geometry" />
        </mxCell>
        <mxCell id="JK9oTEO6e0a9drOFpncE-68" value="Onion architecture" style="rounded=1;whiteSpace=wrap;html=1;" vertex="1" parent="1">
          <mxGeometry x="1350" y="272.5" width="130" height="20" as="geometry" />
        </mxCell>
        <mxCell id="JK9oTEO6e0a9drOFpncE-70" value="MV* architecture" style="rounded=1;whiteSpace=wrap;html=1;" vertex="1" parent="1">
          <mxGeometry x="1490" y="247.5" width="100" height="20" as="geometry" />
        </mxCell>
      </root>
    </mxGraphModel>
  </diagram>
</mxfile>
